<mxfile host="app.diagrams.net" agent="Mozilla/5.0 (Windows NT 10.0; Win64; x64) AppleWebKit/537.36 (KHTML, like Gecko) Chrome/128.0.0.0 Safari/537.36 Edg/128.0.0.0" version="24.7.10">
  <diagram name="第 1 页" id="RbfCE-A4yBWiyoVbAprt">
    <mxGraphModel dx="1259" dy="793" grid="1" gridSize="10" guides="1" tooltips="1" connect="1" arrows="1" fold="1" page="1" pageScale="1" pageWidth="827" pageHeight="1169" math="0" shadow="0">
      <root>
        <mxCell id="0" />
        <mxCell id="1" parent="0" />
        <mxCell id="ndZMRB7T-susuGNwTjUh-2" value="碰撞检查记录表" style="rounded=0;whiteSpace=wrap;html=1;fillColor=#fff2cc;strokeColor=#d6b656;" vertex="1" parent="1">
          <mxGeometry x="215" y="400" width="120" height="60" as="geometry" />
        </mxCell>
        <mxCell id="ndZMRB7T-susuGNwTjUh-3" value="" style="endArrow=none;html=1;rounded=0;exitX=0.5;exitY=0;exitDx=0;exitDy=0;entryX=0.756;entryY=0.92;entryDx=0;entryDy=0;entryPerimeter=0;" edge="1" parent="1" source="ndZMRB7T-susuGNwTjUh-2" target="ndZMRB7T-susuGNwTjUh-4">
          <mxGeometry width="50" height="50" relative="1" as="geometry">
            <mxPoint x="155" y="390" as="sourcePoint" />
            <mxPoint x="205" y="340" as="targetPoint" />
          </mxGeometry>
        </mxCell>
        <mxCell id="ndZMRB7T-susuGNwTjUh-4" value="记录名称" style="ellipse;whiteSpace=wrap;html=1;fillColor=#dae8fc;strokeColor=#6c8ebf;" vertex="1" parent="1">
          <mxGeometry x="140" y="310" width="90" height="50" as="geometry" />
        </mxCell>
        <mxCell id="ndZMRB7T-susuGNwTjUh-5" value="碰撞个数" style="ellipse;whiteSpace=wrap;html=1;fillColor=#dae8fc;strokeColor=#6c8ebf;" vertex="1" parent="1">
          <mxGeometry x="295" y="310" width="90" height="50" as="geometry" />
        </mxCell>
        <mxCell id="ndZMRB7T-susuGNwTjUh-6" value="" style="endArrow=none;html=1;rounded=0;entryX=0.5;entryY=1;entryDx=0;entryDy=0;exitX=0.5;exitY=0;exitDx=0;exitDy=0;" edge="1" parent="1" source="ndZMRB7T-susuGNwTjUh-2" target="ndZMRB7T-susuGNwTjUh-5">
          <mxGeometry width="50" height="50" relative="1" as="geometry">
            <mxPoint x="355" y="380" as="sourcePoint" />
            <mxPoint x="405" y="330" as="targetPoint" />
          </mxGeometry>
        </mxCell>
        <mxCell id="ndZMRB7T-susuGNwTjUh-7" value="" style="endArrow=none;html=1;rounded=0;exitX=0.5;exitY=1;exitDx=0;exitDy=0;entryX=0.5;entryY=0;entryDx=0;entryDy=0;" edge="1" parent="1" source="ndZMRB7T-susuGNwTjUh-2" target="ndZMRB7T-susuGNwTjUh-8">
          <mxGeometry width="50" height="50" relative="1" as="geometry">
            <mxPoint x="265" y="520" as="sourcePoint" />
            <mxPoint x="275" y="520" as="targetPoint" />
          </mxGeometry>
        </mxCell>
        <mxCell id="ndZMRB7T-susuGNwTjUh-8" value="结果集文件id" style="ellipse;whiteSpace=wrap;html=1;fillColor=#dae8fc;strokeColor=#6c8ebf;" vertex="1" parent="1">
          <mxGeometry x="230" y="500" width="90" height="50" as="geometry" />
        </mxCell>
        <mxCell id="ndZMRB7T-susuGNwTjUh-10" value="" style="rounded=0;whiteSpace=wrap;html=1;fillColor=#d5e8d4;strokeColor=#82b366;" vertex="1" parent="1">
          <mxGeometry x="460" y="270" width="240" height="290" as="geometry" />
        </mxCell>
        <mxCell id="ndZMRB7T-susuGNwTjUh-11" value="文件服务器" style="text;html=1;align=center;verticalAlign=middle;whiteSpace=wrap;rounded=0;" vertex="1" parent="1">
          <mxGeometry x="470" y="280" width="80" height="30" as="geometry" />
        </mxCell>
        <mxCell id="ndZMRB7T-susuGNwTjUh-12" value="结果1 json文件" style="rounded=0;whiteSpace=wrap;html=1;" vertex="1" parent="1">
          <mxGeometry x="470" y="320" width="120" height="45" as="geometry" />
        </mxCell>
        <mxCell id="ndZMRB7T-susuGNwTjUh-13" value="结果2 json文件" style="rounded=0;whiteSpace=wrap;html=1;" vertex="1" parent="1">
          <mxGeometry x="470" y="380" width="120" height="45" as="geometry" />
        </mxCell>
        <mxCell id="ndZMRB7T-susuGNwTjUh-14" value="结果3 json文件" style="rounded=0;whiteSpace=wrap;html=1;" vertex="1" parent="1">
          <mxGeometry x="470" y="440" width="120" height="45" as="geometry" />
        </mxCell>
      </root>
    </mxGraphModel>
  </diagram>
</mxfile>
